<svg version="1.1" viewBox="0 0 50.017 45.64" xmlns="http://www.w3.org/2000/svg">
 <g transform="translate(8.0011 1.4303)" stroke-linecap="round" stroke-linejoin="round">
  <g transform="matrix(.87853 0 0 .87664 -.7045 .13162)" stroke-dasharray="0.569746, 0.569746" stroke-dashoffset="44.44" stroke-width="5.6975">
   <path d="m45.778 47.429-11.275-.0123c-4.1486-.004526-11.975-9.208-18.159-16.401-3.6916-4.2938-10.497-10.898-11.093-16.529-.18524-1.7484-.18805-3.0664 1.084-4.2801 1.9412-1.8521 8.1275-3.7762 8.1275-3.7762-2.1951 3.3944 11.21 28.591 17.542 35.841 3.2251 3.6927 10.273 5.0702 13.774 5.1574z" stop-color="#000000"/>
   <path d="m14.462 6.4306c2.8741-3.8393 7.8425-4.0787 13.756-5.3636-.65722 6.0139 6.0986 11.07 6.0986 11.07-1.5691 5.4179-2.6869 8.0487-1.4989 12.669 0 0 3.4873 12.255 9.7399 13.892 3.4708.90863 2.6916 7.6721 2.6916 7.6721" fill="none" stop-color="#000000"/>
  </g>
  <path d="m7.4184 31.568h-9.499" fill="none" stop-color="#000000" stroke-dasharray="0.499999, 0.499999" stroke-dashoffset="39" stroke-width="5"/>
  <path d="m15.999 41.71h-21.798" fill="none" stop-color="#000000" stroke-dasharray="0.499999, 0.499999" stroke-dashoffset="39" stroke-width="5"/>
 </g>
</svg>
