<svg version="1.1" viewBox="0 0 46.621 50.243" xmlns="http://www.w3.org/2000/svg">
 <g transform="translate(-182.46 1.0521)">
  <circle cx="202" cy="29.655" r="17.036" fill="none" stroke-width="5"/>
  <g stroke-linejoin="round">
   <path transform="matrix(.57352 0 0 .52306 143.34 -36.91)" d="m102.28 80.421c-3.1872.03888-6.42.25322-6.42.25322-.0306-1.4575.34463-4.4228-4.3403-4.4043h-3.3839v-5.83h14.123l14.123-.05879.0243 5.83-3.3839.01408c-4.6849.00096-4.2974 2.9647-4.3219 4.4223 0 0-3.2337-.20089-6.421-.2265z" stop-color="#000000" stroke-width="3.6516"/>
   <path transform="translate(102.35 -65.731)" d="m119.87 80.112c-1.9399-2.5939-3.3028-3.1568-3.0001-3.4107 1.2004-1.0067 3.2074-2.6128 3.2074-2.6128l2.8103 3.7275 2.843 3.7026s-2.0831 1.506-3.3735 2.3944c-.32546.22408-.5045-1.2396-2.4871-3.801z" stop-color="#000000" stroke-width="2"/>
   <path d="m202 20.261a9.3943 9.3943 0 018.1357 4.6972 9.3943 9.3943 0 01-1e-5 9.3943l-8.1357-4.6972z" fill-rule="evenodd" stroke-linecap="round" stroke-width="2.5"/>
  </g>
 </g>
</svg>
